<svg width="24" height="24" viewBox="0 0 24 24" fill="none" xmlns="http://www.w3.org/2000/svg">
<path d="M17.13 3.54H15.81C15.7523 3.11575 15.5436 2.72653 15.2222 2.44368C14.9008 2.16083 14.4882 2.00331 14.06 2H9.94002C9.51187 2.00331 9.09927 2.16083 8.77785 2.44368C8.45643 2.72653 8.24773 3.11575 8.19002 3.54H6.86002C6.11741 3.54 5.40522 3.835 4.88012 4.3601C4.35501 4.8852 4.06002 5.59739 4.06002 6.34V19.19C4.0587 19.5585 4.13015 19.9237 4.27028 20.2646C4.4104 20.6055 4.61644 20.9153 4.87657 21.1764C5.13671 21.4374 5.44582 21.6446 5.78619 21.7859C6.12655 21.9272 6.49147 22 6.86002 22H17.13C17.8753 22 18.59 21.7039 19.117 21.177C19.644 20.65 19.94 19.9353 19.94 19.19V6.34C19.94 5.97146 19.8673 5.60654 19.7259 5.26617C19.5846 4.92581 19.3774 4.61669 19.1164 4.35656C18.8553 4.09642 18.5455 3.89038 18.2046 3.75026C17.8637 3.61014 17.4986 3.53868 17.13 3.54ZM9.67002 8.91C9.66743 9.10811 9.58758 9.29737 9.44748 9.43747C9.30739 9.57756 9.11812 9.65741 8.92002 9.66H7.92002C7.7211 9.66 7.53034 9.58098 7.38969 9.44033C7.24903 9.29968 7.17002 9.10891 7.17002 8.91C7.17002 8.71109 7.24903 8.52032 7.38969 8.37967C7.53034 8.23902 7.7211 8.16 7.92002 8.16H8.92002C9.11812 8.16259 9.30739 8.24244 9.44748 8.38253C9.58758 8.52263 9.66743 8.71189 9.67002 8.91ZM7.13002 17.14C7.13261 16.9419 7.21245 16.7526 7.35255 16.6125C7.49264 16.4724 7.68191 16.3926 7.88002 16.39H16.11C16.3089 16.39 16.4997 16.469 16.6403 16.6097C16.781 16.7503 16.86 16.9411 16.86 17.14C16.86 17.3389 16.781 17.5297 16.6403 17.6703C16.4997 17.811 16.3089 17.89 16.11 17.89H7.88002C7.68191 17.8874 7.49264 17.8076 7.35255 17.6675C7.21245 17.5274 7.13261 17.3381 7.13002 17.14ZM16.13 13.77H7.88002C7.6811 13.77 7.49034 13.691 7.34969 13.5503C7.20903 13.4097 7.13002 13.2189 7.13002 13.02C7.13002 12.8211 7.20903 12.6303 7.34969 12.4897C7.49034 12.349 7.6811 12.27 7.88002 12.27H16.11C16.3089 12.27 16.4997 12.349 16.6403 12.4897C16.781 12.6303 16.86 12.8211 16.86 13.02C16.86 13.2189 16.781 13.4097 16.6403 13.5503C16.4997 13.691 16.3089 13.77 16.11 13.77H16.13ZM9.69002 3.77C9.69002 3.69839 9.71846 3.62972 9.7691 3.57908C9.81973 3.52845 9.88841 3.5 9.96002 3.5H14.08C14.1508 3.50249 14.2181 3.53173 14.2682 3.58184C14.3183 3.63194 14.3475 3.69918 14.35 3.77V4.77C14.3501 4.84256 14.3219 4.9123 14.2716 4.96454C14.2212 5.01677 14.1525 5.04741 14.08 5.05H9.94002C9.9037 5.05002 9.86775 5.04272 9.83433 5.02853C9.8009 5.01434 9.77068 4.99356 9.74547 4.96742C9.72026 4.94128 9.70059 4.91032 9.68762 4.8764C9.67466 4.84248 9.66867 4.80629 9.67002 4.77L9.69002 3.77Z" fill="black"/>
</svg>
