<svg width="24" height="24" viewBox="0 0 24 24" fill="none" xmlns="http://www.w3.org/2000/svg">
<path d="M18.85 7.24001L19.8 6.28999C20.09 5.99999 20.09 5.52 19.8 5.23C19.51 4.94 19.03 4.94 18.74 5.23L17.79 6.17999C16.4 5.00999 14.66 4.25 12.75 4.09V3.5H13.03C13.44 3.5 13.78 3.16 13.78 2.75C13.78 2.34 13.44 2 13.03 2H10.97C10.56 2 10.22 2.34 10.22 2.75C10.22 3.16 10.56 3.5 10.97 3.5H11.25V4.09C9.34003 4.25 7.60002 5.00999 6.21002 6.17999L5.26004 5.23C4.97004 4.94 4.49004 4.94 4.20004 5.23C3.91004 5.52 3.91004 5.99999 4.20004 6.28999L5.15002 7.24001C3.83002 8.81001 3.03003 10.82 3.03003 13.03C3.03003 17.97 7.05003 22 12 22C16.95 22 20.97 17.97 20.97 13.03C20.97 10.82 20.17 8.81001 18.85 7.24001ZM15.1 10.99L13.67 12.42C13.73 12.61 13.78 12.81 13.78 13.03C13.78 14.01 12.98 14.81 12 14.81C11.02 14.81 10.22 14.01 10.22 13.03C10.22 12.05 11.02 11.25 12 11.25C12.21 11.25 12.42 11.29 12.6 11.36L14.04 9.92999C14.33 9.62999 14.81 9.62999 15.1 9.92999C15.39 10.22 15.39 10.7 15.1 10.99Z" fill="black"/>
</svg>
